<svg width="88" height="88" viewBox="0 0 88 88" fill="none" xmlns="http://www.w3.org/2000/svg">
<g clip-path="url(#clip0_2248_937)">
<path d="M58.21 14.55L72.76 0H87.31V14.55L72.76 29.1H58.21V14.55Z" fill="#FFDECC"/>
<path d="M87.3098 0H72.7598V14.55H87.3098V0Z" fill="#FF8D4D"/>
<path d="M58.21 43.6601L72.76 29.1001H87.31V43.6601L72.76 58.2101H58.21V43.6601Z" fill="#FFDECC"/>
<path d="M87.3098 29.1001H72.7598V43.6501H87.3098V29.1001Z" fill="#FF8D4D"/>
<path d="M29.0996 14.55L43.6596 0H58.2096V14.55L43.6596 29.1H29.0996V14.55Z" fill="#FFDECC"/>
<path d="M58.2092 0H43.6592V14.55H58.2092V0Z" fill="#FF8D4D"/>
<path d="M29.0996 43.6601L43.6596 29.1001H58.2096V43.6601L43.6596 58.2101H29.0996V43.6601Z" fill="#FFDECC"/>
<path d="M58.2092 29.1001H43.6592V43.6501H58.2092V29.1001Z" fill="#FF8D4D"/>
<path d="M0 14.55L14.55 0H29.1V14.55L14.55 29.1H0V14.55Z" fill="#FFDECC"/>
<path d="M29.0998 0H14.5498V14.55H29.0998V0Z" fill="#FF8D4D"/>
<path d="M0 43.6601L14.55 29.1001H29.1V43.6601L14.55 58.2101H0V43.6601Z" fill="#FFDECC"/>
<path d="M29.0998 29.1001H14.5498V43.6501H29.0998V29.1001Z" fill="#FF8D4D"/>
<path d="M58.21 72.76L72.76 58.21H87.31V72.76L72.76 87.31H58.21V72.76Z" fill="#FFDECC"/>
<path d="M87.3098 58.21H72.7598V72.76H87.3098V58.21Z" fill="#FF8D4D"/>
<path d="M29.0996 72.76L43.6596 58.21H58.2096V72.76L43.6596 87.31H29.0996V72.76Z" fill="#FFDECC"/>
<path d="M58.2092 58.21H43.6592V72.76H58.2092V58.21Z" fill="#FF8D4D"/>
<path d="M0 72.76L14.55 58.21H29.1V72.76L14.55 87.31H0V72.76Z" fill="#FFDECC"/>
<path d="M29.0998 58.21H14.5498V72.76H29.0998V58.21Z" fill="#FF8D4D"/>
</g>
<defs>
<clipPath id="clip0_2248_937">
<rect width="87.31" height="87.31" fill="white"/>
</clipPath>
</defs>
</svg>
