<svg width="459" height="156" viewBox="0 0 459 156" fill="none" xmlns="http://www.w3.org/2000/svg">
<g filter="url(#filter0_d_2248_930)">
<rect x="86" width="364.31" height="148" rx="12" fill="white"/>
<rect x="87" y="1" width="362.31" height="146" rx="11" stroke="#262626" stroke-width="2"/>
<g clip-path="url(#clip0_2248_930)">
<path d="M194.21 44.895L208.76 30.345H223.31V44.895L208.76 59.445H194.21V44.895Z" fill="#FFDECC"/>
<path d="M223.31 30.345H208.76V44.895H223.31V30.345Z" fill="#FF8D4D"/>
<path d="M194.21 74.0051L208.76 59.4451H223.31V74.0051L208.76 88.5551H194.21V74.0051Z" fill="#FFDECC"/>
<path d="M223.31 59.4451H208.76V73.9951H223.31V59.4451Z" fill="#FF8D4D"/>
<path d="M165.1 44.895L179.66 30.345H194.21V44.895L179.66 59.445H165.1V44.895Z" fill="#FFDECC"/>
<path d="M194.209 30.345H179.659V44.895H194.209V30.345Z" fill="#FF8D4D"/>
<path d="M165.1 74.0051L179.66 59.4451H194.21V74.0051L179.66 88.5551H165.1V74.0051Z" fill="#FFDECC"/>
<path d="M194.209 59.4451H179.659V73.9951H194.209V59.4451Z" fill="#FF8D4D"/>
<path d="M136 44.895L150.55 30.345H165.1V44.895L150.55 59.445H136V44.895Z" fill="#FFDECC"/>
<path d="M165.1 30.345H150.55V44.895H165.1V30.345Z" fill="#FF8D4D"/>
<path d="M136 74.0051L150.55 59.4451H165.1V74.0051L150.55 88.5551H136V74.0051Z" fill="#FFDECC"/>
<path d="M165.1 59.4451H150.55V73.9951H165.1V59.4451Z" fill="#FF8D4D"/>
<path d="M194.21 103.105L208.76 88.5549H223.31V103.105L208.76 117.655H194.21V103.105Z" fill="#FFDECC"/>
<path d="M223.31 88.5549H208.76V103.105H223.31V88.5549Z" fill="#FF8D4D"/>
<path d="M165.1 103.105L179.66 88.5549H194.21V103.105L179.66 117.655H165.1V103.105Z" fill="#FFDECC"/>
<path d="M194.209 88.5549H179.659V103.105H194.209V88.5549Z" fill="#FF8D4D"/>
<path d="M136 103.105L150.55 88.5549H165.1V103.105L150.55 117.655H136V103.105Z" fill="#FFDECC"/>
<path d="M165.1 88.5549H150.55V103.105H165.1V88.5549Z" fill="#FF8D4D"/>
</g>
<path d="M245.894 98C245.894 95.96 246.052 94.124 246.37 92.492C246.687 90.86 247.231 89.3413 248.002 87.936C248.818 86.5307 249.906 85.216 251.266 83.992C252.671 82.7227 254.439 81.4987 256.57 80.32C258.428 79.3227 260.06 78.4613 261.466 77.736C262.871 76.9653 264.05 76.2627 265.002 75.628C265.999 74.9933 266.747 74.3587 267.246 73.724C267.744 73.044 267.994 72.2733 267.994 71.412C267.994 70.5053 267.744 69.6893 267.246 68.964C266.747 68.1933 266.044 67.5813 265.138 67.128C264.231 66.6747 263.098 66.448 261.738 66.448C260.65 66.448 259.63 66.584 258.678 66.856C257.771 67.128 256.91 67.5133 256.094 68.012C255.323 68.5107 254.598 69.0773 253.918 69.712C253.238 70.3013 252.626 70.936 252.082 71.616L246.302 64.952C246.936 64.3173 247.775 63.6373 248.818 62.912C249.906 62.1413 251.175 61.4387 252.626 60.804C254.122 60.124 255.754 59.58 257.522 59.172C259.335 58.7187 261.262 58.492 263.302 58.492C266.384 58.492 269.014 58.9907 271.19 59.988C273.366 60.94 275.02 62.2773 276.154 64C277.332 65.7227 277.922 67.74 277.922 70.052C277.922 71.6387 277.627 73.044 277.038 74.268C276.448 75.492 275.7 76.58 274.794 77.532C273.887 78.4387 272.89 79.2547 271.802 79.98C270.759 80.7053 269.739 81.34 268.742 81.884C267.336 82.6093 266.067 83.2893 264.934 83.924C263.8 84.5133 262.803 85.1253 261.942 85.76C261.08 86.3493 260.31 86.9613 259.63 87.596C258.995 88.2307 258.428 88.956 257.93 89.772H278.67V98H245.894ZM320.112 78.076C320.112 82.0653 319.342 85.624 317.8 88.752C316.304 91.8347 314.219 94.26 311.544 96.028C308.915 97.796 305.923 98.68 302.568 98.68C299.214 98.68 296.199 97.796 293.524 96.028C290.895 94.26 288.81 91.8347 287.268 88.752C285.772 85.624 285.024 82.0653 285.024 78.076C285.024 74.0867 285.772 70.5507 287.268 67.468C288.81 64.34 290.895 61.892 293.524 60.124C296.199 58.3107 299.214 57.404 302.568 57.404C305.923 57.404 308.915 58.3107 311.544 60.124C314.219 61.892 316.304 64.34 317.8 67.468C319.342 70.5507 320.112 74.0867 320.112 78.076ZM310.932 78.076C310.932 75.628 310.57 73.4973 309.844 71.684C309.164 69.8253 308.19 68.3747 306.92 67.332C305.651 66.2893 304.2 65.768 302.568 65.768C300.891 65.768 299.418 66.2893 298.148 67.332C296.879 68.3747 295.882 69.8253 295.156 71.684C294.476 73.4973 294.136 75.628 294.136 78.076C294.136 80.524 294.476 82.6547 295.156 84.468C295.882 86.2813 296.879 87.7093 298.148 88.752C299.418 89.7947 300.891 90.316 302.568 90.316C304.2 90.316 305.628 89.7947 306.852 88.752C308.122 87.7093 309.119 86.2813 309.844 84.468C310.57 82.6093 310.932 80.4787 310.932 78.076ZM326.046 98C326.046 95.96 326.205 94.124 326.522 92.492C326.839 90.86 327.383 89.3413 328.154 87.936C328.97 86.5307 330.058 85.216 331.418 83.992C332.823 82.7227 334.591 81.4987 336.722 80.32C338.581 79.3227 340.213 78.4613 341.618 77.736C343.023 76.9653 344.202 76.2627 345.154 75.628C346.151 74.9933 346.899 74.3587 347.398 73.724C347.897 73.044 348.146 72.2733 348.146 71.412C348.146 70.5053 347.897 69.6893 347.398 68.964C346.899 68.1933 346.197 67.5813 345.29 67.128C344.383 66.6747 343.25 66.448 341.89 66.448C340.802 66.448 339.782 66.584 338.83 66.856C337.923 67.128 337.062 67.5133 336.246 68.012C335.475 68.5107 334.75 69.0773 334.07 69.712C333.39 70.3013 332.778 70.936 332.234 71.616L326.454 64.952C327.089 64.3173 327.927 63.6373 328.97 62.912C330.058 62.1413 331.327 61.4387 332.778 60.804C334.274 60.124 335.906 59.58 337.674 59.172C339.487 58.7187 341.414 58.492 343.454 58.492C346.537 58.492 349.166 58.9907 351.342 59.988C353.518 60.94 355.173 62.2773 356.306 64C357.485 65.7227 358.074 67.74 358.074 70.052C358.074 71.6387 357.779 73.044 357.19 74.268C356.601 75.492 355.853 76.58 354.946 77.532C354.039 78.4387 353.042 79.2547 351.954 79.98C350.911 80.7053 349.891 81.34 348.894 81.884C347.489 82.6093 346.219 83.2893 345.086 83.924C343.953 84.5133 342.955 85.1253 342.094 85.76C341.233 86.3493 340.462 86.9613 339.782 87.596C339.147 88.2307 338.581 88.956 338.082 89.772H358.822V98H326.046ZM387.753 81.952C389.657 82.2693 391.311 82.9947 392.717 84.128C394.122 85.216 395.21 86.6213 395.981 88.344C396.797 90.0667 397.205 91.9707 397.205 94.056C397.205 96.8667 396.479 99.3147 395.029 101.4C393.578 103.485 391.515 105.095 388.841 106.228C386.211 107.407 383.106 107.996 379.525 107.996C376.079 107.996 373.019 107.429 370.345 106.296C367.715 105.208 365.517 103.599 363.749 101.468L368.917 95.008C370.095 96.4587 371.501 97.592 373.133 98.408C374.81 99.2693 376.85 99.7 379.253 99.7C382.018 99.7 384.126 99.1333 385.577 98C387.027 96.912 387.753 95.2573 387.753 93.036C387.753 90.6787 386.914 88.8653 385.237 87.596C383.559 86.3267 381.021 85.692 377.621 85.692H375.717V78.892H377.825C380.59 78.892 382.743 78.2573 384.285 76.988C385.871 75.7187 386.665 74.132 386.665 72.228C386.665 71.004 386.37 69.984 385.781 69.168C385.191 68.352 384.375 67.74 383.333 67.332C382.335 66.924 381.157 66.72 379.797 66.72C377.757 66.72 375.898 67.196 374.221 68.148C372.543 69.1 371.183 70.4373 370.141 72.16L364.429 65.768C365.381 64.3627 366.673 63.1613 368.305 62.164C369.982 61.1213 371.886 60.3053 374.017 59.716C376.193 59.1267 378.459 58.832 380.817 58.832C383.899 58.832 386.597 59.3307 388.909 60.328C391.266 61.3253 393.102 62.7307 394.417 64.544C395.731 66.3573 396.389 68.4653 396.389 70.868C396.389 72.636 396.026 74.3133 395.301 75.9C394.575 77.4867 393.555 78.824 392.241 79.912C390.971 80.9547 389.475 81.6347 387.753 81.952Z" fill="#1A1A1A"/>
</g>
<circle cx="12" cy="74" r="11" fill="white" stroke="#262626" stroke-width="2"/>
<rect width="55" height="12" transform="translate(22 68)" fill="#FFBE99"/>
<line x1="22" y1="73" x2="71" y2="73" stroke="black" stroke-width="2"/>
<circle cx="87" cy="74" r="11" fill="white" stroke="#262626" stroke-width="2"/>
<defs>
<filter id="filter0_d_2248_930" x="86" y="0" width="372.31" height="156" filterUnits="userSpaceOnUse" color-interpolation-filters="sRGB">
<feFlood flood-opacity="0" result="BackgroundImageFix"/>
<feColorMatrix in="SourceAlpha" type="matrix" values="0 0 0 0 0 0 0 0 0 0 0 0 0 0 0 0 0 0 127 0" result="hardAlpha"/>
<feMorphology radius="2" operator="dilate" in="SourceAlpha" result="effect1_dropShadow_2248_930"/>
<feOffset dx="6" dy="6"/>
<feComposite in2="hardAlpha" operator="out"/>
<feColorMatrix type="matrix" values="0 0 0 0 0.117647 0 0 0 0 0.117647 0 0 0 0 0.117647 0 0 0 1 0"/>
<feBlend mode="normal" in2="BackgroundImageFix" result="effect1_dropShadow_2248_930"/>
<feBlend mode="normal" in="SourceGraphic" in2="effect1_dropShadow_2248_930" result="shape"/>
</filter>
<clipPath id="clip0_2248_930">
<rect width="87.31" height="87.31" fill="white" transform="translate(136 30.345)"/>
</clipPath>
</defs>
</svg>
