<svg width="455" height="156" viewBox="0 0 455 156" fill="none" xmlns="http://www.w3.org/2000/svg">
<g filter="url(#filter0_d_2248_1010)">
<rect x="86" width="360.31" height="148" rx="12" fill="white"/>
<rect x="87" y="1" width="358.31" height="146" rx="11" stroke="#262626" stroke-width="2"/>
<g clip-path="url(#clip0_2248_1010)">
<path d="M194.21 44.8952L208.76 30.3452H223.31V44.8952L208.76 59.4452H194.21V44.8952Z" fill="#FFDECC"/>
<path d="M223.31 30.3452H208.76V44.8952H223.31V30.3452Z" fill="#FF8D4D"/>
<path d="M194.21 74.0053L208.76 59.4453H223.31V74.0053L208.76 88.5553H194.21V74.0053Z" fill="#FFDECC"/>
<path d="M223.31 59.4453H208.76V73.9953H223.31V59.4453Z" fill="#FF8D4D"/>
<path d="M165.1 44.8952L179.66 30.3452H194.21V44.8952L179.66 59.4452H165.1V44.8952Z" fill="#FFDECC"/>
<path d="M194.209 30.3452H179.659V44.8952H194.209V30.3452Z" fill="#FF8D4D"/>
<path d="M165.1 74.0053L179.66 59.4453H194.21V74.0053L179.66 88.5553H165.1V74.0053Z" fill="#FFDECC"/>
<path d="M194.209 59.4453H179.659V73.9953H194.209V59.4453Z" fill="#FF8D4D"/>
<path d="M136 44.8952L150.55 30.3452H165.1V44.8952L150.55 59.4452H136V44.8952Z" fill="#FFDECC"/>
<path d="M165.1 30.3452H150.55V44.8952H165.1V30.3452Z" fill="#FF8D4D"/>
<path d="M136 74.0053L150.55 59.4453H165.1V74.0053L150.55 88.5553H136V74.0053Z" fill="#FFDECC"/>
<path d="M165.1 59.4453H150.55V73.9953H165.1V59.4453Z" fill="#FF8D4D"/>
<path d="M194.21 103.105L208.76 88.5552H223.31V103.105L208.76 117.655H194.21V103.105Z" fill="#FFDECC"/>
<path d="M223.31 88.5552H208.76V103.105H223.31V88.5552Z" fill="#FF8D4D"/>
<path d="M165.1 103.105L179.66 88.5552H194.21V103.105L179.66 117.655H165.1V103.105Z" fill="#FFDECC"/>
<path d="M194.209 88.5552H179.659V103.105H194.209V88.5552Z" fill="#FF8D4D"/>
<path d="M136 103.105L150.55 88.5552H165.1V103.105L150.55 117.655H136V103.105Z" fill="#FFDECC"/>
<path d="M165.1 88.5552H150.55V103.105H165.1V88.5552Z" fill="#FF8D4D"/>
</g>
<path d="M245.894 98C245.894 95.96 246.052 94.124 246.37 92.492C246.687 90.86 247.231 89.3413 248.002 87.936C248.818 86.5307 249.906 85.216 251.266 83.992C252.671 82.7227 254.439 81.4987 256.57 80.32C258.428 79.3227 260.06 78.4613 261.466 77.736C262.871 76.9653 264.05 76.2627 265.002 75.628C265.999 74.9933 266.747 74.3587 267.246 73.724C267.744 73.044 267.994 72.2733 267.994 71.412C267.994 70.5053 267.744 69.6893 267.246 68.964C266.747 68.1933 266.044 67.5813 265.138 67.128C264.231 66.6747 263.098 66.448 261.738 66.448C260.65 66.448 259.63 66.584 258.678 66.856C257.771 67.128 256.91 67.5133 256.094 68.012C255.323 68.5107 254.598 69.0773 253.918 69.712C253.238 70.3013 252.626 70.936 252.082 71.616L246.302 64.952C246.936 64.3173 247.775 63.6373 248.818 62.912C249.906 62.1413 251.175 61.4387 252.626 60.804C254.122 60.124 255.754 59.58 257.522 59.172C259.335 58.7187 261.262 58.492 263.302 58.492C266.384 58.492 269.014 58.9907 271.19 59.988C273.366 60.94 275.02 62.2773 276.154 64C277.332 65.7227 277.922 67.74 277.922 70.052C277.922 71.6387 277.627 73.044 277.038 74.268C276.448 75.492 275.7 76.58 274.794 77.532C273.887 78.4387 272.89 79.2547 271.802 79.98C270.759 80.7053 269.739 81.34 268.742 81.884C267.336 82.6093 266.067 83.2893 264.934 83.924C263.8 84.5133 262.803 85.1253 261.942 85.76C261.08 86.3493 260.31 86.9613 259.63 87.596C258.995 88.2307 258.428 88.956 257.93 89.772H278.67V98H245.894ZM320.112 78.076C320.112 82.0653 319.342 85.624 317.8 88.752C316.304 91.8347 314.219 94.26 311.544 96.028C308.915 97.796 305.923 98.68 302.568 98.68C299.214 98.68 296.199 97.796 293.524 96.028C290.895 94.26 288.81 91.8347 287.268 88.752C285.772 85.624 285.024 82.0653 285.024 78.076C285.024 74.0867 285.772 70.5507 287.268 67.468C288.81 64.34 290.895 61.892 293.524 60.124C296.199 58.3107 299.214 57.404 302.568 57.404C305.923 57.404 308.915 58.3107 311.544 60.124C314.219 61.892 316.304 64.34 317.8 67.468C319.342 70.5507 320.112 74.0867 320.112 78.076ZM310.932 78.076C310.932 75.628 310.57 73.4973 309.844 71.684C309.164 69.8253 308.19 68.3747 306.92 67.332C305.651 66.2893 304.2 65.768 302.568 65.768C300.891 65.768 299.418 66.2893 298.148 67.332C296.879 68.3747 295.882 69.8253 295.156 71.684C294.476 73.4973 294.136 75.628 294.136 78.076C294.136 80.524 294.476 82.6547 295.156 84.468C295.882 86.2813 296.879 87.7093 298.148 88.752C299.418 89.7947 300.891 90.316 302.568 90.316C304.2 90.316 305.628 89.7947 306.852 88.752C308.122 87.7093 309.119 86.2813 309.844 84.468C310.57 82.6093 310.932 80.4787 310.932 78.076ZM355.422 89.772V98H327.814V89.772H337.47V69.168C337.062 69.712 336.427 70.2787 335.566 70.868C334.705 71.412 333.73 71.9333 332.642 72.432C331.554 72.9307 330.466 73.3387 329.378 73.656C328.29 73.9733 327.315 74.132 326.454 74.132V65.632C327.27 65.632 328.245 65.3827 329.378 64.884C330.557 64.34 331.713 63.7053 332.846 62.98C334.025 62.2547 335.022 61.552 335.838 60.872C336.699 60.1467 337.243 59.58 337.47 59.172H346.786V89.772H355.422ZM359.647 98C359.647 95.96 359.806 94.124 360.123 92.492C360.441 90.86 360.985 89.3413 361.755 87.936C362.571 86.5307 363.659 85.216 365.019 83.992C366.425 82.7227 368.193 81.4987 370.323 80.32C372.182 79.3227 373.814 78.4613 375.219 77.736C376.625 76.9653 377.803 76.2627 378.755 75.628C379.753 74.9933 380.501 74.3587 380.999 73.724C381.498 73.044 381.747 72.2733 381.747 71.412C381.747 70.5053 381.498 69.6893 380.999 68.964C380.501 68.1933 379.798 67.5813 378.891 67.128C377.985 66.6747 376.851 66.448 375.491 66.448C374.403 66.448 373.383 66.584 372.431 66.856C371.525 67.128 370.663 67.5133 369.847 68.012C369.077 68.5107 368.351 69.0773 367.671 69.712C366.991 70.3013 366.379 70.936 365.835 71.616L360.055 64.952C360.69 64.3173 361.529 63.6373 362.571 62.912C363.659 62.1413 364.929 61.4387 366.379 60.804C367.875 60.124 369.507 59.58 371.275 59.172C373.089 58.7187 375.015 58.492 377.055 58.492C380.138 58.492 382.767 58.9907 384.943 59.988C387.119 60.94 388.774 62.2773 389.907 64C391.086 65.7227 391.675 67.74 391.675 70.052C391.675 71.6387 391.381 73.044 390.791 74.268C390.202 75.492 389.454 76.58 388.547 77.532C387.641 78.4387 386.643 79.2547 385.555 79.98C384.513 80.7053 383.493 81.34 382.495 81.884C381.09 82.6093 379.821 83.2893 378.687 83.924C377.554 84.5133 376.557 85.1253 375.695 85.76C374.834 86.3493 374.063 86.9613 373.383 87.596C372.749 88.2307 372.182 88.956 371.683 89.772H392.423V98H359.647Z" fill="#1A1A1A"/>
</g>
<circle cx="12" cy="74" r="11" fill="white" stroke="#262626" stroke-width="2"/>
<rect width="55" height="12" transform="translate(22 68)" fill="#FFBE99"/>
<line x1="22" y1="73" x2="71" y2="73" stroke="black" stroke-width="2"/>
<circle cx="87" cy="74" r="11" fill="white" stroke="#262626" stroke-width="2"/>
<defs>
<filter id="filter0_d_2248_1010" x="86" y="0" width="368.31" height="156" filterUnits="userSpaceOnUse" color-interpolation-filters="sRGB">
<feFlood flood-opacity="0" result="BackgroundImageFix"/>
<feColorMatrix in="SourceAlpha" type="matrix" values="0 0 0 0 0 0 0 0 0 0 0 0 0 0 0 0 0 0 127 0" result="hardAlpha"/>
<feMorphology radius="2" operator="dilate" in="SourceAlpha" result="effect1_dropShadow_2248_1010"/>
<feOffset dx="6" dy="6"/>
<feComposite in2="hardAlpha" operator="out"/>
<feColorMatrix type="matrix" values="0 0 0 0 0.117647 0 0 0 0 0.117647 0 0 0 0 0.117647 0 0 0 1 0"/>
<feBlend mode="normal" in2="BackgroundImageFix" result="effect1_dropShadow_2248_1010"/>
<feBlend mode="normal" in="SourceGraphic" in2="effect1_dropShadow_2248_1010" result="shape"/>
</filter>
<clipPath id="clip0_2248_1010">
<rect width="87.31" height="87.31" fill="white" transform="translate(136 30.3452)"/>
</clipPath>
</defs>
</svg>
