<svg width="50" height="50" viewBox="0 0 50 50" fill="none" xmlns="http://www.w3.org/2000/svg">
<mask id="mask0_1_1525" style="mask-type:luminance" maskUnits="userSpaceOnUse" x="1" y="1" width="48" height="48">
<path d="M48.4407 1.5625H1.46826V48.535H48.4407V1.5625Z" fill="white"/>
</mask>
<g mask="url(#mask0_1_1525)">
<path fill-rule="evenodd" clip-rule="evenodd" d="M28.4361 4.28553C28.1485 3.80622 27.7171 3.37484 27.094 3.3269L27.2857 3.61449L27.3816 3.80622L27.7171 4.42932L27.8129 4.52518C28.0526 5.10035 28.1964 5.67553 28.2443 6.29863C28.2443 6.63415 28.1485 6.92174 28.0526 7.25725C27.9088 6.44243 27.4774 5.81932 26.9981 5.24415C26.4894 4.72339 25.8656 4.32937 25.1767 4.0938C24.2324 3.71854 23.1973 3.63506 22.205 3.85415C21.8216 3.90208 21.486 4.0938 21.1026 4.28553C20.7671 4.47725 20.4795 4.76484 20.1919 5.00449C19.4957 5.69664 18.9563 6.53028 18.6102 7.44898C18.3226 8.16794 17.9871 8.88691 17.5557 9.55795C17.2202 10.1331 16.7409 10.6604 16.2616 11.0917L14.9195 12.0024C14.1314 12.4982 13.3639 13.0259 12.6188 13.5842C11.5164 14.5428 10.7015 15.8369 10.2702 17.2749C10.0784 17.9938 9.93465 18.7607 10.0305 19.4797C10.1264 19.8631 10.2222 20.1986 10.414 20.5342V20.9176C10.2222 21.8283 10.1743 22.7869 10.4619 23.6976C10.7774 24.7727 11.3164 25.7691 12.0436 26.6214L12.7147 27.5321C13.0022 28.0114 13.2419 28.5387 13.2898 29.1138C13.2898 29.5452 13.146 29.9287 12.8105 30.2162C12.5526 30.4429 12.2372 30.594 11.899 30.6532C11.5608 30.7124 11.2128 30.6773 10.8933 30.5518L10.6536 30.408L10.4619 30.3121L10.414 30.408C10.366 30.4559 10.3181 30.5518 10.366 30.6476L10.7015 31.2707C10.9891 31.6542 11.3247 31.9418 11.756 32.1335C12.0915 32.3252 12.475 32.3731 12.8584 32.2773C13.0981 32.2294 13.2898 32.1335 13.4816 31.9897C13.4816 32.469 13.6253 32.9483 13.7691 33.3797C13.9609 33.9069 14.2484 34.4342 14.6798 34.8176C15.0633 35.2011 15.5426 35.3928 16.0219 35.5366C16.4533 35.6804 16.8847 35.6804 17.316 35.5845C17.4119 35.5366 17.4119 35.4887 17.4119 35.3928L17.2681 35.0573L17.2202 34.9614L16.8367 34.0028C17.6995 34.6259 18.706 34.9135 19.7605 35.0094C20.4316 35.0573 21.1505 34.9614 21.7736 34.7218C21.9174 34.6738 22.1091 34.578 22.1571 34.4342C22.2529 34.2904 22.1571 34.1466 22.1091 34.0028L21.9174 33.2838L21.8695 33.14C22.3009 33.4276 22.7323 33.6194 23.2595 33.6194C23.8347 33.6194 24.4578 33.3797 24.7933 32.9004L24.9371 32.8525C24.6973 30.7383 24.1983 28.6616 23.4512 26.6693C23.1272 25.8044 22.7261 24.9702 22.2529 24.1769L22.1571 23.8893C22.1571 23.1704 22.0612 22.3555 21.6298 21.7804C21.9654 21.2531 22.0133 20.5821 22.0612 20.0069C22.0612 19.5276 22.0612 19.0483 21.8216 18.6169L22.0133 18.569L22.3967 18.5211C22.4926 18.4731 22.5405 18.3293 22.5885 18.2335C22.9094 16.9014 23.3923 15.6136 24.0264 14.399L24.3619 13.728C24.4578 13.5842 24.4578 13.4404 24.5057 13.2486V13.0569L24.4098 12.3859L24.3619 11.9545L25.3205 12.2421H25.7998C28.2223 11.825 30.6924 11.7605 33.1333 12.0504L33.4688 12.1462L33.7085 12.2421C33.8043 12.2421 33.9481 12.1942 33.9961 12.0983C34.1399 11.9545 34.1878 11.7628 34.2357 11.5711L34.3795 11.6669L34.8109 12.0024L35.1464 12.1942C35.3675 12.2355 35.5927 12.2516 35.8174 12.2421L36.5843 13.009L36.6323 13.0569C37.6424 14.2118 38.5112 15.483 39.2205 16.8435C39.4123 16.9873 39.6519 16.8914 39.7478 16.6997C40.0833 15.9328 40.1312 15.07 39.9874 14.2552C39.7212 13.0381 39.085 11.9331 38.1661 11.0917C37.8785 10.7562 37.495 10.4686 37.1116 10.1811L35.0985 9.12657C34.0919 8.69519 33.0374 8.35967 31.983 8.16794C30.7847 7.92829 29.5864 7.92829 28.3402 7.97622C28.8674 7.44898 29.0112 6.73001 29.0112 6.01105C29.0112 5.38794 28.7716 4.81277 28.4361 4.28553ZM16.0698 12.8173C16.645 12.1462 17.2202 11.4752 17.6516 10.6604L16.8847 11.4752C16.4053 11.9066 15.8781 12.1942 15.3509 12.5297L14.8236 12.8652L14.6798 12.9131C14.0567 13.2966 13.3857 13.728 12.8584 14.2073C11.804 15.118 11.085 16.3642 10.7495 17.7062C10.6057 18.4252 10.5098 19.1921 10.7015 19.9111C10.9891 19.0483 11.4205 18.1855 11.8998 17.4186C12.5229 16.46 13.2898 15.5493 14.1047 14.7345L15.0153 13.8238L16.0698 12.8173Z" fill="#262626"/>
<path d="M29.8258 8.64839C31.1678 8.69632 32.5099 8.93597 33.852 9.36735C35.7281 9.89701 37.3994 10.9833 38.6451 12.4829C39.5558 13.6812 40.131 15.1191 40.3227 16.6049C40.5814 18.2062 40.6136 19.8358 40.4185 21.446L40.1789 23.0756L39.9872 24.0343C39.9392 24.1301 39.9392 24.1301 39.8434 24.1301C39.7475 23.9384 39.7475 23.7467 39.7475 23.555C39.6996 22.836 39.7954 22.165 39.8434 21.446C39.8913 20.2956 39.9872 19.1453 39.8913 17.995L39.6037 15.8381C39.2682 14.496 38.6451 13.2498 37.6865 12.2432C36.8237 11.3805 35.7692 10.6615 34.6668 10.1822C33.6123 9.7508 32.5578 9.46322 31.4554 9.27149C30.5927 9.1277 29.7299 9.07977 28.8671 9.07977C26.7403 9.04494 24.6361 9.52165 22.732 10.4698C22.1089 10.9011 21.5337 11.4284 21.0544 12.0036C19.5795 13.9396 18.6673 16.245 18.4182 18.666C18.3702 19.8163 18.4182 20.9187 18.8016 22.0212L19.1371 22.7401L19.7123 22.7881L19.7602 22.9319C19.6164 23.0277 19.4247 23.0277 19.233 23.0756C18.7537 23.1715 18.2744 23.3632 17.843 23.6508C17.5075 23.8905 17.172 24.1781 16.9802 24.5615C16.7406 25.0408 16.8364 25.616 16.9323 26.1432C17.172 27.0539 17.7471 27.9167 18.514 28.4919C19.0413 28.9232 19.7123 29.1629 20.3833 29.2588C20.8627 29.3546 21.342 29.2588 21.8213 29.2108C22.0609 29.4025 22.2047 29.786 22.3485 30.0257L23.2113 31.3198C23.991 32.428 25.0968 33.2657 26.3747 33.7163C27.4292 34.1477 28.5316 34.3874 29.634 34.627L31.5992 35.0105L32.414 35.2501V35.4419H31.8389C30.7614 35.3818 29.6888 35.2537 28.6275 35.0584C27.2021 34.7748 25.8386 34.2391 24.6013 33.4767C24.074 33.1412 23.5947 32.7098 23.2113 32.1826C23.5433 34.1803 23.2764 36.2317 22.4444 38.0781C21.7254 39.3722 20.5271 40.3788 19.0892 40.8102C18.9454 40.8581 18.7537 40.906 18.6099 40.8581C18.514 40.8581 18.514 40.8102 18.514 40.7143C18.562 40.5705 18.7058 40.4746 18.8016 40.4267C19.3768 40.0433 20.0478 39.7557 20.623 39.3243C21.2461 38.797 21.7733 38.2219 22.1089 37.5029C22.3964 36.7839 22.5882 35.9691 22.684 35.1543C22.7799 34.5312 22.8278 33.9081 22.7799 33.237L22.5882 31.4157L21.7254 29.6901L20.8147 29.8819C20.1111 29.9023 19.4136 29.7464 18.7857 29.4283C18.1578 29.1101 17.6195 28.6399 17.2199 28.0605C16.5951 27.2689 16.2572 26.2889 16.2613 25.2805C16.2613 24.8491 16.4051 24.4177 16.6447 24.0822C16.8844 23.7467 17.2199 23.4591 17.5554 23.2674C17.7951 23.0756 18.1306 22.9798 18.4182 22.8839L17.9868 21.7336C17.7471 20.6791 17.7471 19.5767 17.8909 18.5222C18.2048 15.9047 19.2515 13.4291 20.9106 11.3805C21.342 10.9011 21.7733 10.4698 22.3006 10.1343C22.6361 9.94253 22.9716 9.8946 23.2592 9.70287C25.3202 8.79218 27.573 8.50459 29.8258 8.64839Z" fill="#262626"/>
<path d="M28.8669 9.07854C30.8585 9.00446 32.8411 9.38132 34.6666 10.181C35.769 10.6603 36.8235 11.3792 37.6862 12.242C38.6449 13.2485 39.268 14.4948 39.6035 15.8368L39.8911 17.9937C39.9869 19.1441 39.8911 20.2944 39.8431 21.4448C39.7952 22.1637 39.6993 22.8348 39.7473 23.5537C39.7473 23.7455 39.7473 23.9372 39.8431 24.1289L39.7952 25.0875C39.6993 25.3272 39.6993 25.5668 39.6993 25.8544C39.6035 27.0048 39.6035 28.203 39.4118 29.4013C39.3638 29.9765 39.268 30.5996 39.0283 31.1268C38.8845 31.5582 38.6449 31.9417 38.3093 32.2772C37.7342 32.9003 37.0152 33.4275 36.2483 33.8589C35.3376 34.3862 34.379 34.6258 33.4683 35.0093C33.2286 35.1051 32.989 35.201 32.8452 35.3927C33.2286 35.4406 33.5642 35.3927 33.9476 35.2968C33.708 35.872 33.66 36.4472 33.66 37.0224C33.66 37.262 33.6121 37.5496 33.708 37.7893C33.8517 38.0289 34.0914 38.2206 34.3311 38.3644L36.0086 38.9875C37.0631 39.371 38.0697 39.8503 39.1242 40.2817C39.22 40.4734 39.3638 40.6172 39.4118 40.8569C39.6993 41.3841 39.7473 41.9593 39.5555 42.5344C39.3159 43.1575 38.8366 43.6848 38.2614 44.0203C37.4945 44.5475 36.5359 44.931 35.6252 45.1707C31.8983 45.9669 28.0343 45.8518 24.3614 44.8351C23.4028 44.4996 22.4441 44.1641 21.5814 43.6848C20.9104 43.3013 20.1914 42.822 19.6641 42.1989C19.3766 41.8155 19.1369 41.2882 19.089 40.8089C20.2113 40.4664 21.2046 39.794 21.9398 38.8794C22.6749 37.9647 23.1179 36.8501 23.211 35.6803C23.4028 34.5299 23.4028 33.3317 23.211 32.1813C23.5945 32.7086 24.0738 33.1399 24.601 33.4755L25.8952 34.1465C27.7743 34.9572 29.7926 35.3966 31.8386 35.4406H32.4138V35.2489L31.599 35.0093L29.6338 34.6258C28.5314 34.3862 27.429 34.1465 26.3745 33.7151C25.7514 33.4275 25.0804 33.092 24.5052 32.7086C24.0259 32.2772 23.5945 31.8458 23.211 31.3186L22.3483 30.0244C22.2045 29.7848 22.0607 29.4013 21.821 29.2096C21.3417 29.2575 20.8624 29.3534 20.3831 29.2575C19.7121 29.1617 19.041 28.922 18.5138 28.4906C17.7479 27.8981 17.1932 27.0745 16.9321 26.142C16.8362 25.6148 16.7403 25.0396 16.98 24.5603C17.1717 24.1768 17.5072 23.8892 17.8428 23.6496C18.2741 23.362 18.7535 23.1703 19.2328 23.0744C19.4245 23.0265 19.6162 23.0265 19.76 22.9306L19.7121 22.7868L19.1369 22.7389L18.8014 22.0199C18.4179 20.9175 18.37 19.8151 18.4659 18.6648C18.701 16.2485 19.5964 13.9436 21.0541 12.0023C21.5335 11.4272 22.1086 10.8999 22.7317 10.4685C24.6318 9.50384 26.7361 9.01064 28.8669 9.03061V9.07854Z" fill="#FFDECC"/>
<path d="M18.563 24.7983C18.7547 24.7983 18.8985 24.7983 19.0902 24.8942C19.3299 24.9421 19.6175 25.0859 19.7613 25.2777C19.8571 25.4214 19.8571 25.6132 19.7613 25.757C19.5216 26.0445 19.1861 26.2363 18.9944 26.5239C19.282 26.7156 19.6654 26.8114 20.0009 26.9552C20.1926 27.0032 20.3844 27.099 20.5282 27.2428L20.5761 27.3866L20.1926 27.2908L19.0423 26.9552C18.8506 26.9073 18.6589 26.8114 18.6109 26.6197C18.563 26.4759 18.6589 26.2842 18.7547 26.1404L19.4737 25.5173C19.282 25.1818 18.7547 25.1339 18.563 24.7983ZM39.7965 25.0859L39.8923 25.2297L39.9882 25.9966C40.0876 27.4185 40.0555 28.8465 39.8923 30.2625C39.7965 30.7897 39.6527 31.3649 39.413 31.8442C38.1413 33.5081 36.355 34.7046 34.3323 35.2473C34.2844 35.9184 34.1885 36.7332 34.2365 37.5001L34.4761 37.7397C34.8596 38.0273 35.3389 38.1711 35.7703 38.3149C36.8914 38.6728 37.9815 39.1216 39.0296 39.657C39.3651 39.8487 39.6527 40.0884 39.8923 40.3759C39.6527 40.4239 39.413 40.328 39.1254 40.2801C38.0709 39.8487 37.0644 39.3694 36.0099 38.9859L34.3323 38.3628C34.0927 38.219 33.853 38.0273 33.7092 37.7877C33.6134 37.548 33.6613 37.2604 33.6613 37.0208C33.6613 36.4456 33.7092 35.8704 33.9489 35.2952C33.5654 35.3911 33.2299 35.439 32.8465 35.3911C32.9902 35.1994 33.2299 35.1035 33.4696 35.0077C34.3802 34.6242 35.3389 34.3846 36.2496 33.8573C37.0165 33.4259 37.7354 32.8987 38.3106 32.2756C38.6461 31.9401 38.8858 31.5566 39.0296 31.1252C39.2692 30.598 39.3651 29.9749 39.413 29.3997C39.6047 28.2014 39.6047 27.0032 39.7006 25.8528C39.7006 25.5652 39.7006 25.3256 39.7965 25.0859Z" fill="#262626"/>
<path d="M38.1658 20.1033C38.5493 20.0554 38.9327 20.1512 39.2203 20.3909C39.3641 20.5347 39.5079 20.7264 39.5079 20.9181C39.5558 21.1578 39.3162 21.3974 39.0765 21.3974C38.8848 21.3495 38.7889 21.2536 38.6931 21.1098L38.2138 20.7743C38.6451 21.5412 38.4055 22.5957 37.7345 23.123C37.3989 23.4105 36.8717 23.5064 36.5362 23.1709C36.2486 22.9312 36.1527 22.5957 36.1527 22.2123C36.0569 22.4519 35.9131 22.6436 35.8651 22.8833C35.8172 22.9792 35.8172 23.075 35.7213 23.075C35.6255 22.8354 35.6734 22.5478 35.7693 22.2602C36.0569 21.4933 36.5841 20.8223 37.3031 20.4388C37.5427 20.2471 37.8303 20.1512 38.1658 20.1033ZM28.0044 20.6305C29.2986 20.6785 30.5448 21.4933 31.072 22.6436C31.1679 22.7395 31.2638 22.9312 31.12 23.075C30.9762 23.075 30.8803 22.8833 30.7844 22.7874C30.5927 22.404 30.3051 22.1164 29.9696 21.8767C30.0655 22.404 30.0655 22.8833 29.7779 23.3626C29.5382 23.7461 29.011 23.9857 28.5796 23.9378C28.2441 23.8419 27.9086 23.6981 27.6689 23.4105C27.3813 23.123 27.2855 22.6436 27.2855 22.2602C27.2855 21.9247 27.4293 21.6371 27.5731 21.3974C26.902 21.5412 26.231 21.8288 25.7038 22.2602C25.56 22.3081 25.4641 22.404 25.3203 22.404C25.1286 22.3561 25.0327 22.2123 25.0327 22.0205C25.0327 21.8767 25.1286 21.7329 25.2244 21.6371C25.6079 21.3495 25.9913 21.0619 26.4706 20.8702C26.95 20.6785 27.4772 20.5826 28.0044 20.6305Z" fill="#262626"/>
<path d="M28.4848 15.5002C29.2038 15.5482 30.0186 15.7399 30.5938 16.2192C30.7855 16.363 30.9772 16.5547 31.0252 16.7464C31.0731 16.8902 31.0731 16.9861 30.9293 17.034C30.7855 17.034 30.6417 16.8902 30.5458 16.7944C30.0186 16.4109 29.3955 16.1713 28.7245 16.1713C28.341 16.1713 28.0055 16.2671 27.622 16.363C26.9031 16.5068 26.232 16.8902 25.8007 17.4654C25.6569 17.6092 25.561 17.8009 25.3214 17.8489C25.0817 17.8968 24.842 17.7051 24.842 17.4654C24.7941 17.2737 24.9379 17.082 25.0338 16.9382C25.6089 16.2192 26.4717 15.7399 27.3824 15.5482C27.7179 15.4523 28.1014 15.4523 28.4848 15.5002ZM38.3107 15.9795C38.5503 16.0754 38.79 16.3151 38.9338 16.5068C39.0776 16.6506 39.1734 16.8423 39.1734 17.034C39.1734 17.3216 38.8859 17.5133 38.5983 17.4175C38.3586 17.3216 38.3107 17.082 38.119 16.8902C37.9272 16.7464 37.6876 16.5547 37.4958 16.5068C36.9207 16.3151 36.3455 16.5547 35.9621 16.9382L35.5307 17.3695C35.5307 17.034 35.7224 16.7464 35.9621 16.5547C36.5372 15.9316 37.4958 15.692 38.3107 15.9795Z" fill="#262626"/>
<path d="M35.1943 26.478C35.1943 26.6218 35.0984 26.7656 35.0026 26.9094C34.8108 27.197 34.4753 27.3887 34.1398 27.4846C33.9001 27.5325 33.7084 27.3887 33.5167 27.4846C33.325 27.4846 33.1332 27.5325 32.9415 27.4366C32.8457 27.3887 32.8457 27.2449 32.9415 27.1491C33.0853 26.9573 33.325 26.8135 33.5167 26.8135C33.7084 26.7656 33.8522 26.7656 33.996 26.9094L34.0439 27.2449C34.2836 27.1491 34.3795 27.0053 34.5712 26.8615L35.1943 26.478Z" fill="#262626"/>
<path d="M28.9151 29.0625C29.0589 29.0625 29.1548 29.1584 29.2506 29.2542L29.8738 29.5897C30.401 29.8294 30.9762 29.9732 31.5034 30.117C32.2224 30.3566 32.9413 30.4046 33.6603 30.4046C34.2355 30.4525 34.7627 30.5004 35.29 30.4525L35.4817 30.5484C34.6189 30.9797 33.5165 31.0756 32.5579 31.0277C31.4555 30.9797 30.3531 30.6442 29.3944 30.1649C29.1069 29.9732 28.7713 29.7815 28.7234 29.398C28.6755 29.2542 28.7713 29.0625 28.9151 29.0625Z" fill="#262626"/>
<path d="M30.449 7.97888C32.0567 8.07083 33.6332 8.46091 35.0983 9.12923C35.7693 9.46475 36.4883 9.80027 37.1114 10.2316C37.4949 10.4713 37.8783 10.7589 38.1659 11.0944L39.2204 12.2927C38.789 12.4844 38.3576 12.4365 37.9262 12.3885C37.1114 12.2927 36.2966 12.1968 35.4818 12.2448L35.0983 12.1968L34.7628 11.9572L34.1876 11.5737C34.1876 11.7654 34.1397 11.9092 34.0438 12.101C33.948 12.1968 33.8521 12.2448 33.7083 12.2448C33.5166 12.1968 33.3728 12.101 33.1811 12.101C30.7137 11.7373 28.2031 11.7859 25.7517 12.2448H25.2245L24.3617 11.9572C24.4097 12.3885 24.5535 12.8199 24.5055 13.2034C24.4576 13.3951 24.4576 13.5868 24.3617 13.7306C24.0262 14.4017 23.6428 15.0248 23.3552 15.7437C23.0197 16.5585 22.7321 17.4213 22.5404 18.2841C22.5404 18.3799 22.4924 18.4758 22.3966 18.5237L21.8214 18.6196C22.061 19.051 22.109 19.5782 22.061 20.0575C22.0131 20.6327 21.9173 21.3037 21.6297 21.783C21.9652 22.2144 22.109 22.7896 22.109 23.3648C22.1569 24.2755 22.109 25.1382 21.7735 26.001C21.6776 26.1927 21.5338 26.4324 21.2941 26.5282C21.2462 26.5761 21.1024 26.5761 21.1024 26.4803C21.0066 26.2886 21.0066 26.0489 20.9586 25.8572C20.8628 25.1382 20.5273 24.4672 20 23.9399C19.6166 23.6044 19.1852 23.2689 18.7538 23.0292C18.4662 22.9334 18.2266 22.8375 17.9869 22.6458L17.6993 22.2624C17.1241 20.7286 16.9324 19.051 17.1241 17.4213C17.3279 15.5113 17.9322 13.6657 18.8976 12.0051C19.3769 11.2382 19.9521 10.5672 20.5752 9.94406C21.0545 9.51268 21.5338 9.12923 22.061 8.84164L22.7321 8.60199L24.2659 8.07475L25.1766 7.97888H27.2376C28.34 7.97888 29.3466 7.88302 30.449 7.97888Z" fill="#262626"/>
</g>
</svg>
