<svg width="16" height="15" viewBox="0 0 16 15" fill="none" xmlns="http://www.w3.org/2000/svg">
<path d="M6.02612 0.988554C6.79881 -0.329412 8.70412 -0.329413 9.47681 0.988553L10.5537 2.82545C10.8357 3.30642 11.3057 3.64785 11.8502 3.7674L13.93 4.22399C15.4222 4.55159 16.011 6.36365 14.9963 7.50579L13.5821 9.09764C13.2118 9.51445 13.0323 10.0669 13.0869 10.6218L13.2954 12.7408C13.4449 14.2613 11.9035 15.3812 10.5037 14.7691L8.55274 13.916C8.04191 13.6927 7.46102 13.6927 6.95019 13.916L4.99924 14.7691C3.59944 15.3812 2.05801 14.2613 2.20757 12.7408L2.41602 10.6218C2.4706 10.0669 2.2911 9.51445 1.92081 9.09764L0.506602 7.50579C-0.508084 6.36365 0.0806894 4.55159 1.57292 4.22399L3.6527 3.7674C4.19727 3.64785 4.66721 3.30642 4.94919 2.82545L6.02612 0.988554Z" fill="#FF8D4D"/>
</svg>
